HIERARCHY
ROOT Hips
{
	OFFSET 0.00000 0.00000 0.00000
	CHANNELS 6 Xposition Yposition Zposition Zrotation Yrotation Xrotation 
	JOINT LHipJoint
	{
		OFFSET 0 0 0
		CHANNELS 3 Zrotation Yrotation Xrotation
		JOINT LeftHip
		{
			OFFSET 1.40252 -1.71424 0.59123
			CHANNELS 3 Zrotation Yrotation Xrotation
			JOINT LeftKnee
			{
				OFFSET 2.50071 -6.87065 0.00000
				CHANNELS 3 Zrotation Yrotation Xrotation
				JOINT LeftAnkle
				{
					OFFSET 2.50834 -6.89162 0.00000
					CHANNELS 3 Zrotation Yrotation Xrotation
					JOINT LeftToe
					{
						OFFSET 0.21528 -0.59149 1.64448
						CHANNELS 3 Zrotation Yrotation Xrotation
						End Site
						{
							OFFSET 0.00000 -0.00000 0.87921
						}
					}
				}
			}
		}
	}
	JOINT RHipJoint
	{
		OFFSET 0 0 0
		CHANNELS 3 Zrotation Yrotation Xrotation
		JOINT RightHip
		{
			OFFSET -1.53651 -1.71424 0.59123
			CHANNELS 3 Zrotation Yrotation Xrotation
			JOINT RightKnee
			{
				OFFSET -2.45783 -6.75285 0.00000
				CHANNELS 3 Zrotation Yrotation Xrotation
				JOINT RightAnkle
				{
					OFFSET -2.51921 -6.92147 0.00000
					CHANNELS 3 Zrotation Yrotation Xrotation
					JOINT RightToe
					{
						OFFSET -0.21777 -0.59831 1.59676
						CHANNELS 3 Zrotation Yrotation Xrotation
						End Site
						{
							OFFSET -0.00000 -0.00000 0.85779
						}
					}
				}
			}
		}
	}
	JOINT lowerback
	{
		OFFSET 0 0 0
		CHANNELS 3 Zrotation Yrotation Xrotation
		JOINT Chest
		{
			OFFSET 0.02212 2.07622 0.03776
			CHANNELS 3 Zrotation Yrotation Xrotation
			JOINT Chest2
			{
				OFFSET -0.00949 2.08009 -0.00123
				CHANNELS 3 Zrotation Yrotation Xrotation
				JOINT lowerneck
				{
					OFFSET 0 0 0
					CHANNELS 3 Zrotation Yrotation Xrotation
					JOINT Neck
					{
						OFFSET 0.00288 1.67184 0.11155
						CHANNELS 3 Zrotation Yrotation Xrotation
						JOINT Head
						{
							OFFSET -0.02412 1.66997 -0.22040
							CHANNELS 3 Zrotation Yrotation Xrotation
							End Site
							{
								OFFSET -0.01026 1.69043 -0.08683
							}
						}
					}
				}
				JOINT LeftCollar
				{
					OFFSET 0 0 0
					CHANNELS 3 Zrotation Yrotation Xrotation
					JOINT LeftShoulder
					{
						OFFSET 3.97941 0.74048 0.81462
CHANNELS 3 Zrotation Xrotation Yrotation
						JOINT LeftElbow
						{
OFFSET 0 -5.018340 -0.000000
CHANNELS 3 Zrotation Xrotation Yrotation
							JOINT LeftWrist
							{
OFFSET 0 -3.486900 0.000000
CHANNELS 3 Zrotation Xrotation Yrotation
								JOINT lhand
								{
									OFFSET 0 0 0
CHANNELS 3 Zrotation Xrotation Yrotation
									JOINT LFingers
									{
OFFSET 0 -0.767990 0.000000
CHANNELS 3 Zrotation Xrotation Yrotation
										End Site
										{
OFFSET 0 -0.619170 0.000000
										}
									}
								}
								JOINT LThumb
								{
OFFSET 0 0.000000 0.000000
CHANNELS 3 Zrotation Xrotation Yrotation
									End Site
									{
OFFSET 0 -0.628630 0.628630
									}
								}
							}
						}
					}
				}
				JOINT RightCollar
				{
					OFFSET 0 0 0
					CHANNELS 3 Zrotation Yrotation Xrotation
					JOINT RightShoulder
					{
						OFFSET -3.88702 1.02123 0.44091
CHANNELS 3 Zrotation Xrotation Yrotation
						JOINT RightElbow
						{
OFFSET 0 -4.701640 0.000000
CHANNELS 3 Zrotation Xrotation Yrotation
							JOINT RightWrist
							{
OFFSET 0 -3.499110 0.000000
CHANNELS 3 Zrotation Xrotation Yrotation
								JOINT rhand
								{
									OFFSET 0 0 0
CHANNELS 3 Zrotation Xrotation Yrotation
									JOINT RFingers
									{
OFFSET 0 -0.739330 0.000000
CHANNELS 3 Zrotation Xrotation Yrotation
										End Site
										{
OFFSET 0 -0.596070 0.000000
										}
									}
								}
								JOINT RThumb
								{
OFFSET 0 0.000000 0.000000
CHANNELS 3 Zrotation Xrotation Yrotation
									End Site
									{
OFFSET 0 -0.605170 0.605170
									}
								}
							}
						}
					}
				}
			}
		}
	}
}
MOTION
Frames: 6
Frame Time: 0.008333333333333333
-14.958900 17.347800 -1.028200 164.558000 59.468800 -177.946000 0.000000 0.000000 0.000000 -22.751800 -9.764500 -13.189500 0.452000 4.313400 11.960000 -1.117800 -27.050700 -11.476700 2.646100 10.098800 29.297100 0.000000 0.000000 0.000000 21.625500 3.574800 4.596100 -0.370200 3.908000 -10.818000 1.850200 -31.490200 -34.976400 -1.395600 -7.473700 21.126600 -12.039900 -13.179500 -33.336200 -1.426900 -11.675100 -0.265900 -0.776700 -5.538100 18.471300 -3.992800 -10.985900 -6.290400 1.306400 -14.554100 15.860500 -0.039100 -7.139200 6.239400 -0.000000 -0.000000 0.000000 0.300500 2.176900 -27.926900 13.593600 -22.150800 2.673000 24.254800 15.564700 -42.022500 0.000000 0.000000 0.000000 -7.125000 0.000000 0.000000 -21.814600 73.676900 14.985400 -0.000000 -0.000000 0.000000 10.139500 5.998200 9.188200 -14.242100 -23.079700 -2.922300 -30.753200 30.518100 -4.832800 0.000000 0.000000 0.000000 7.125000 0.000000 -0.000000 -3.047900 24.361600 -1.521300
-14.968190 17.352290 -1.029732 165.100093 60.050296 -177.986301 0.000000 0.000000 0.000000 -22.389262 -9.029477 -12.738713 0.436088 4.237693 11.746378 -1.097901 -26.943243 -11.513449 2.589691 9.999133 28.973949 0.000000 0.000000 0.000000 22.041698 3.985027 5.224152 -0.364975 3.880693 -10.741348 2.002654 -31.719957 -34.513417 -1.268212 -7.137728 20.124159 -12.966766 -13.800482 -33.804209 -0.401795 -12.360440 0.784025 0.190531 -5.993907 20.500467 -4.075971 -10.195896 -7.709701 1.441144 -13.442125 15.250615 0.044347 -6.594800 6.271025 0.000000 0.000000 0.000000 -1.159956 -0.011532 -25.867815 13.323061 -21.758701 2.571816 25.544349 17.378841 -42.752847 0.000000 0.000000 0.000000 -7.125000 0.000000 0.000000 -21.523782 74.783750 15.283238 0.000000 0.000000 0.000000 8.953723 3.857389 11.139654 -14.343310 -23.223437 -2.962188 -29.568027 30.511860 -4.264552 0.000000 0.000000 0.000000 7.125000 0.000000 0.000000 -2.195972 25.079325 -1.059070
-14.984193 17.354919 -1.035158 165.776521 60.087651 -177.870536 0.000000 0.000000 0.000000 -22.095015 -9.005427 -12.201023 0.435399 4.234127 11.736209 -1.020649 -26.635242 -11.782761 2.433267 9.715523 28.060328 0.000000 0.000000 0.000000 22.393321 3.883289 5.571992 -0.352676 3.815276 -10.557435 1.993397 -31.673284 -34.476922 -1.253375 -7.097512 20.004675 -12.785518 -13.639105 -33.100228 -0.312124 -12.394555 0.822399 0.280372 -6.031614 20.255976 -4.074201 -9.789578 -7.842345 1.641853 -12.918076 15.504187 0.136834 -6.318373 6.373190 0.000000 0.000000 0.000000 -1.368691 0.005745 -25.193066 13.214762 -21.601144 2.531799 25.231564 17.547254 -42.442529 0.000000 0.000000 0.000000 -7.125000 0.000000 0.000000 -21.315117 74.398618 14.959224 0.000000 0.000000 0.000000 9.242384 3.828169 10.614143 -14.231883 -23.065184 -2.918327 -30.747707 30.195879 -5.211451 0.000000 0.000000 0.000000 7.125000 0.000000 0.000000 -3.018725 23.923118 -1.537205
-14.999524 17.357613 -1.037239 166.169913 60.100421 -177.786416 0.000000 0.000000 0.000000 -21.945452 -9.157474 -11.872698 0.434951 4.232044 11.730481 -0.973065 -26.377923 -11.879939 2.345600 9.551681 27.536699 0.000000 0.000000 0.000000 22.552372 3.828976 5.701531 -0.340840 3.751485 -10.378452 1.960062 -31.608246 -34.549766 -1.300648 -7.225166 20.384209 -12.738914 -13.511197 -32.685613 -0.264803 -12.344929 0.877572 0.388937 -6.032088 20.151318 -4.569983 -9.559699 -7.930604 2.333976 -12.653262 16.040794 0.425832 -6.150536 6.631891 0.000000 0.000000 0.000000 -1.548343 0.055401 -25.105633 13.260303 -21.667443 2.548604 25.453731 17.647071 -42.515606 0.000000 0.000000 0.000000 -7.125000 0.000000 0.000000 -21.156275 74.544035 14.910372 0.000000 0.000000 0.000000 9.511531 4.061125 10.357686 -14.166110 -22.971679 -2.892613 -30.591937 30.978178 -5.492492 0.000000 0.000000 0.000000 7.125000 0.000000 0.000000 -2.884539 23.607565 -1.489740
-15.015098 17.360665 -1.036203 166.407486 60.088261 -177.584494 0.000000 0.000000 0.000000 -21.838001 -9.102476 -11.926868 0.431489 4.215630 11.684082 -0.985454 -26.357736 -11.760650 2.251332 9.371115 26.963322 0.000000 0.000000 0.000000 22.653189 3.783394 5.802980 -0.358625 3.847426 -10.647838 1.996291 -31.666135 -34.445347 -1.267341 -7.135686 20.117962 -12.828055 -13.538076 -32.581369 -0.149782 -12.399311 0.939540 0.532780 -6.077346 20.242159 -4.695657 -9.272501 -7.817780 2.499828 -12.274597 16.368663 0.529010 -5.955144 6.723185 0.000000 0.000000 0.000000 -1.864568 0.233056 -25.118401 13.493406 -22.005848 2.635298 25.188737 17.104332 -42.373386 0.000000 0.000000 0.000000 -7.125000 0.000000 0.000000 -21.234760 74.322528 14.867827 0.000000 0.000000 0.000000 9.761627 4.232562 9.894672 -14.070760 -22.835785 -2.855552 -30.511800 31.298500 -5.877696 0.000000 0.000000 0.000000 7.125000 0.000000 0.000000 -2.799122 23.167485 -1.474001
-15.023936 17.364081 -1.030598 166.707002 60.054252 -177.502661 0.000000 0.000000 0.000000 -21.685656 -9.228409 -11.729058 0.436038 4.237384 11.745495 -0.960241 -26.173835 -11.763166 2.213600 9.297500 26.730510 0.000000 0.000000 0.000000 22.848143 3.694463 5.964821 -0.361102 3.860357 -10.684023 2.041400 -31.784311 -34.406559 -1.237868 -7.055201 19.879061 -12.852399 -13.501921 -32.298145 -0.145660 -12.405695 1.045565 0.571545 -6.098572 20.264961 -3.758677 -9.195382 -7.694966 1.554799 -12.140211 16.578179 0.112809 -5.907412 6.642250 0.000000 0.000000 0.000000 -2.044046 0.209915 -24.735096 13.459625 -21.956880 2.622622 25.340977 17.416318 -42.378528 0.000000 0.000000 0.000000 -7.125000 0.000000 0.000000 -21.033957 74.382771 14.751053 0.000000 0.000000 0.000000 9.966343 4.418014 10.025550 -14.085593 -22.856957 -2.861264 -30.324242 30.893733 -6.434475 0.000000 0.000000 0.000000 7.125000 0.000000 0.000000 -2.622911 22.538435 -1.418676
